<svg width="239" height="30" viewBox="0 0 239 30" fill="none" xmlns="http://www.w3.org/2000/svg">
<path d="M238.829 5.6138V25.1438H235.565V5.6138H238.829Z" fill="#FF7557"/>
<path d="M226.695 14.486C227.55 14.486 228.257 14.207 228.815 13.649C229.373 13.091 229.652 12.4028 229.652 11.5844C229.652 10.766 229.373 10.0871 228.815 9.5477C228.257 9.0083 227.55 8.7386 226.695 8.7386H222.482V14.486H226.695ZM219.217 5.6138H226.695C227.885 5.6138 228.954 5.8742 229.903 6.395C230.852 6.9158 231.596 7.6319 232.135 8.5433C232.674 9.4361 232.944 10.4498 232.944 11.5844C232.944 12.7376 232.674 13.7699 232.135 14.6813C231.596 15.5927 230.852 16.3088 229.903 16.8296C228.954 17.3504 227.885 17.6108 226.695 17.6108H222.482V25.1438H219.217V5.6138Z" fill="#FF7557"/>
<path d="M217.185 25.1438H213.642L212.136 21.2378H203.877L202.343 25.1438H198.883L206.667 5.6138H209.401L217.185 25.1438ZM210.992 18.3362L208.006 10.6358L204.993 18.3362H210.992Z" fill="#FF7557"/>
<path d="M184.462 11.2217C185.764 11.2217 186.954 11.5379 188.033 12.1703C189.112 12.7841 189.967 13.6397 190.6 14.7371C191.232 15.8159 191.548 17.0156 191.548 18.3362C191.548 19.6568 191.232 20.8565 190.6 21.9353C189.967 23.0141 189.112 23.8697 188.033 24.5021C186.954 25.1159 185.764 25.4228 184.462 25.4228C183.141 25.4228 181.941 25.1159 180.862 24.5021C179.784 23.8697 178.928 23.0141 178.296 21.9353C177.682 20.8565 177.375 19.6568 177.375 18.3362C177.375 17.0156 177.682 15.8159 178.296 14.7371C178.928 13.6397 179.784 12.7841 180.862 12.1703C181.96 11.5379 183.16 11.2217 184.462 11.2217ZM180.416 18.3362C180.416 19.0988 180.593 19.7963 180.946 20.4287C181.3 21.0425 181.783 21.5354 182.397 21.9074C183.029 22.2608 183.718 22.4375 184.462 22.4375C185.206 22.4375 185.884 22.2608 186.498 21.9074C187.112 21.5354 187.596 21.0425 187.949 20.4287C188.302 19.7963 188.479 19.0988 188.479 18.3362C188.479 17.5736 188.302 16.8761 187.949 16.2437C187.596 15.6113 187.112 15.1184 186.498 14.765C185.884 14.393 185.206 14.207 184.462 14.207C183.718 14.207 183.029 14.393 182.397 14.765C181.783 15.1184 181.3 15.6113 180.946 16.2437C180.593 16.8761 180.416 17.5736 180.416 18.3362Z" fill="#12110D"/>
<path d="M174.794 11.5007V25.1438H171.697V11.5007H174.794ZM173.259 5.1674C173.799 5.1674 174.264 5.3627 174.654 5.7533C175.063 6.1439 175.268 6.6089 175.268 7.1483C175.268 7.7063 175.063 8.1806 174.654 8.5712C174.264 8.9618 173.799 9.1571 173.259 9.1571C172.72 9.1571 172.255 8.9618 171.864 8.5712C171.474 8.1806 171.278 7.7063 171.278 7.1483C171.278 6.6089 171.474 6.1439 171.864 5.7533C172.255 5.3627 172.72 5.1674 173.259 5.1674Z" fill="#12110D"/>
<path d="M165.315 16.2995C164.999 15.6857 164.497 15.1835 163.809 14.7929C163.121 14.3837 162.386 14.1791 161.605 14.1791C160.823 14.1791 160.117 14.3651 159.484 14.7371C158.852 15.0905 158.35 15.5834 157.978 16.2158C157.624 16.8296 157.448 17.5271 157.448 18.3083C157.448 19.0895 157.624 19.7963 157.978 20.4287C158.35 21.0611 158.852 21.5633 159.484 21.9353C160.135 22.2887 160.842 22.4654 161.605 22.4654C162.367 22.4654 163.093 22.2701 163.781 21.8795C164.469 21.4889 164.981 20.9867 165.315 20.3729V16.2995ZM154.406 18.3083C154.406 17.0063 154.695 15.8159 155.271 14.7371C155.848 13.6583 156.638 12.8027 157.643 12.1703C158.647 11.5379 159.754 11.2217 160.963 11.2217C161.893 11.2217 162.767 11.4263 163.586 11.8355C164.404 12.2447 164.981 12.7655 165.315 13.3979V5.6138H168.412V25.1438H165.315V23.2466C164.981 23.879 164.404 24.3998 163.586 24.809C162.767 25.2182 161.893 25.4228 160.963 25.4228C159.754 25.4228 158.647 25.1066 157.643 24.4742C156.638 23.8418 155.848 22.9862 155.271 21.9074C154.695 20.8286 154.406 19.6289 154.406 18.3083Z" fill="#12110D"/>
<path d="M148.684 23.3303C148.274 23.9627 147.698 24.4742 146.954 24.8648C146.21 25.2368 145.41 25.4228 144.554 25.4228C142.843 25.4228 141.485 24.8741 140.481 23.7767C139.477 22.6607 138.974 21.1634 138.974 19.2848V11.5007H142.071V18.7826C142.071 19.88 142.36 20.7449 142.936 21.3773C143.531 22.0097 144.322 22.3259 145.308 22.3259C145.996 22.3259 146.638 22.1585 147.233 21.8237C147.847 21.4889 148.33 21.0332 148.684 20.4566L148.711 11.5007H151.836V25.1438H148.684V23.3303Z" fill="#12110D"/>
<path d="M135.092 25.3391C133.549 25.3391 132.302 24.8741 131.354 23.9441C130.424 22.9955 129.959 21.6935 129.959 20.0381V14.4581H127.336V11.5007H129.959V7.84579H133.056V11.5007H136.627V14.4581H133.056V19.8986C133.056 20.6798 133.288 21.3029 133.753 21.7679C134.237 22.2143 134.832 22.4375 135.539 22.4375C135.874 22.4375 136.227 22.3817 136.599 22.2701L136.766 25.0043C136.32 25.2275 135.762 25.3391 135.092 25.3391Z" fill="#12110D"/>
<path d="M119.673 5.33479C120.919 5.33479 122.165 5.60449 123.412 6.14389C124.676 6.66469 125.644 7.32499 126.313 8.12479L124.416 10.6637C123.765 9.99409 122.984 9.46399 122.072 9.07339C121.18 8.68279 120.296 8.48749 119.422 8.48749C118.529 8.48749 117.794 8.69209 117.218 9.10129C116.66 9.51049 116.381 10.0406 116.381 10.6916C116.381 11.2496 116.557 11.7146 116.911 12.0866C117.283 12.4586 117.739 12.7562 118.278 12.9794C118.836 13.184 119.599 13.4258 120.566 13.7048C121.886 14.0768 122.956 14.4581 123.774 14.8487C124.611 15.2207 125.318 15.788 125.895 16.5506C126.49 17.2946 126.787 18.2804 126.787 19.508C126.787 20.5682 126.499 21.554 125.923 22.4654C125.365 23.3582 124.555 24.0743 123.495 24.6137C122.435 25.1531 121.207 25.4228 119.812 25.4228C118.362 25.4228 116.929 25.1066 115.516 24.4742C114.102 23.8418 112.958 23.042 112.084 22.0748L114.177 19.6754C115.032 20.4938 115.906 21.1355 116.799 21.6005C117.692 22.0469 118.696 22.2701 119.812 22.2701C120.891 22.2701 121.765 22.019 122.435 21.5168C123.105 21.0146 123.439 20.3543 123.439 19.5359C123.439 18.9965 123.263 18.5594 122.909 18.2246C122.556 17.8712 122.11 17.5922 121.57 17.3876C121.031 17.183 120.287 16.9505 119.338 16.6901C118.018 16.3367 116.939 15.9833 116.102 15.6299C115.283 15.2579 114.577 14.6999 113.981 13.9559C113.386 13.1933 113.089 12.1889 113.089 10.9427C113.089 9.90109 113.368 8.95249 113.926 8.09689C114.502 7.24129 115.283 6.57169 116.269 6.08809C117.274 5.58589 118.408 5.33479 119.673 5.33479Z" fill="#12110D"/>
<path d="M103.763 25.1438H100.666V5.6138H103.763V25.1438Z" fill="#12110D"/>
<path d="M91.5517 25.4228C90.2683 25.4228 89.0872 25.1159 88.0084 24.5021C86.9296 23.8697 86.074 23.0048 85.4416 21.9074C84.8092 20.81 84.493 19.5917 84.493 18.2525C84.493 16.9505 84.7999 15.7694 85.4137 14.7092C86.0461 13.6304 86.9017 12.7841 87.9805 12.1703C89.0593 11.5379 90.2404 11.2217 91.5238 11.2217C92.7328 11.2217 93.8395 11.51 94.8439 12.0866C95.8483 12.6632 96.6388 13.4444 97.2154 14.4302C97.792 15.416 98.0803 16.5134 98.0803 17.7224C98.0803 18.0572 98.0431 18.5036 97.9687 19.0616H87.5062C87.6736 20.1962 88.12 21.089 88.8454 21.74C89.5894 22.391 90.5287 22.7165 91.6633 22.7165C92.4259 22.7165 93.1327 22.5584 93.7837 22.2422C94.4533 21.9074 94.9369 21.4796 95.2345 20.9588L97.6897 22.4654C97.1875 23.3954 96.3877 24.1208 95.2903 24.6416C94.2115 25.1624 92.9653 25.4228 91.5517 25.4228ZM94.9276 16.8296C94.816 15.9554 94.4254 15.2393 93.7558 14.6813C93.0862 14.1233 92.2957 13.8443 91.3843 13.8443C90.3985 13.8443 89.5708 14.114 88.9012 14.6534C88.2502 15.1742 87.8131 15.8996 87.5899 16.8296H94.9276Z" fill="#12110D"/>
<path d="M71.9398 13.3979C72.2746 12.7655 72.8512 12.2447 73.6696 11.8355C74.5066 11.4263 75.3808 11.2217 76.2922 11.2217C77.5012 11.2217 78.6079 11.5379 79.6123 12.1703C80.6167 12.8027 81.4072 13.6583 81.9838 14.7371C82.5604 15.8159 82.8487 17.0063 82.8487 18.3083C82.8487 19.6289 82.5604 20.8286 81.9838 21.9074C81.4072 22.9862 80.6167 23.8418 79.6123 24.4742C78.6079 25.1066 77.5012 25.4228 76.2922 25.4228C75.3808 25.4228 74.5066 25.2182 73.6696 24.809C72.8512 24.3998 72.2746 23.879 71.9398 23.2466V25.1438H68.8429V5.6138H71.9398V13.3979ZM71.9398 20.3729C72.2746 20.9867 72.7861 21.4889 73.4743 21.8795C74.1625 22.2701 74.8879 22.4654 75.6505 22.4654C76.4131 22.4654 77.1106 22.2887 77.743 21.9353C78.394 21.5633 78.8962 21.0611 79.2496 20.4287C79.6216 19.7963 79.8076 19.0895 79.8076 18.3083C79.8076 17.5271 79.6216 16.8296 79.2496 16.2158C78.8962 15.5834 78.4033 15.0905 77.7709 14.7371C77.1385 14.3651 76.4317 14.1791 75.6505 14.1791C74.8693 14.1791 74.1346 14.3837 73.4464 14.7929C72.7582 15.1835 72.256 15.6857 71.9398 16.2995V20.3729Z" fill="#12110D"/>
<path d="M65.5862 25.1438H62.4614V23.2466C62.1266 23.879 61.55 24.3998 60.7316 24.809C59.9132 25.2182 59.039 25.4228 58.109 25.4228C56.9 25.4228 55.7933 25.1066 54.7889 24.4742C53.7845 23.8418 52.994 22.9862 52.4174 21.9074C51.8408 20.8286 51.5525 19.6289 51.5525 18.3083C51.5525 17.0063 51.8408 15.8159 52.4174 14.7371C52.994 13.6583 53.7845 12.8027 54.7889 12.1703C55.7933 11.5379 56.9 11.2217 58.109 11.2217C59.039 11.2217 59.9132 11.4263 60.7316 11.8355C61.55 12.2447 62.1266 12.7655 62.4614 13.3979V11.5007H65.5862V25.1438ZM54.5936 18.3083C54.5936 19.0895 54.7703 19.7963 55.1237 20.4287C55.4957 21.0611 55.9979 21.5633 56.6303 21.9353C57.2813 22.2887 57.9881 22.4654 58.7507 22.4654C59.5133 22.4654 60.2387 22.2701 60.9269 21.8795C61.6151 21.4889 62.1266 20.9867 62.4614 20.3729V16.2995C62.1452 15.6857 61.643 15.1835 60.9548 14.7929C60.2666 14.3837 59.5319 14.1791 58.7507 14.1791C57.9695 14.1791 57.2627 14.3651 56.6303 14.7371C55.9979 15.0905 55.4957 15.5834 55.1237 16.2158C54.7703 16.8296 54.5936 17.5271 54.5936 18.3083Z" fill="#12110D"/>
<path d="M41.0499 5.6138V22.019H50.3964V25.1438H37.7856V5.6138H41.0499Z" fill="#12110D"/>
<g clip-path="url(#clip0_653_1307)">
<rect x="3.57416" y="4.84192" width="22.637" height="21.4456" fill="#FFD6CD"/>
<path fill-rule="evenodd" clip-rule="evenodd" d="M8.4444 8.42013H0V0H8.4444V8.42013ZM30.025 8.42017H21.5806V3.32022e-05H30.025V8.42017ZM0 29.9385H8.4444V21.5183H0V29.9385ZM30.025 29.9385H21.5806V21.5183H30.025V29.9385ZM2.81439 8.42028H5.62919V21.5183H2.81439V8.42028ZM27.2099 8.42028H24.3951V21.5183H27.2099V8.42028ZM8.44461 2.80693H21.5803V5.61364H8.44461V2.80693ZM21.5803 24.3246H8.44461V27.1313H21.5803V24.3246Z" fill="#FF7557"/>
</g>
<defs>
<clipPath id="clip0_653_1307">
<rect width="30.0245" height="29.9383" fill="white"/>
</clipPath>
</defs>
</svg>
